<svg xmlns="http://www.w3.org/2000/svg" viewBox="0 0 512 512"><title>Mail</title><g id="Mail"><g id="Mail-2" data-name="Mail"><path d="M256,73.8247a182.18,182.18,0,0,0-182.18,182.18c0,100.6173,81.567,182.1708,182.18,182.1708a182.1753,182.1753,0,1,0,0-364.3506ZM162.9388,189.7969H349.0657l.0084.0293L256,247.8658l-93.07-58.04ZM365.134,312.3949a19.522,19.522,0,0,1-19.52,19.521H166.378a19.5249,19.5249,0,0,1-19.52-19.521V209.317a19.9262,19.9262,0,0,1,.3078-3.34l102.9987,64.23c.1314.0792.2637.1323.3951.2115.1323.07.2727.14.4131.2106a10.9666,10.9666,0,0,0,2.2419.87c.0792.018.1575.0441.2367.0612a11.3184,11.3184,0,0,0,2.5407.3168h.0171a11.35,11.35,0,0,0,2.5443-.3168c.0747-.0171.1539-.0432.2331-.0612a11.5815,11.5815,0,0,0,2.25-.87c.1323-.07.2727-.14.4086-.2106.1278-.0792.2682-.1323.3915-.2115l102.99-64.23a19.0252,19.0252,0,0,1,.3078,3.34V312.3949Z"/></g></g></svg>